<mxfile host="app.diagrams.net" agent="Mozilla/5.0 (Macintosh; Intel Mac OS X 10_15_7) AppleWebKit/605.1.15 (KHTML, like Gecko) Version/18.4 Safari/605.1.15" version="26.2.13">
  <diagram name="Page-1" id="0lpagYtmdXni5I3xIcIk">
    <mxGraphModel dx="2592" dy="-112" grid="0" gridSize="10" guides="1" tooltips="1" connect="1" arrows="1" fold="1" page="1" pageScale="1" pageWidth="1400" pageHeight="850" math="0" shadow="0">
      <root>
        <mxCell id="0" />
        <mxCell id="1" parent="0" />
        <mxCell id="aleImnM5mG5gDYkD4qVE-2" value="&lt;p style=&quot;margin-top: 6pt ; margin-bottom: 0pt ; margin-left: 0in ; direction: ltr ; unicode-bidi: embed ; vertical-align: baseline ; word-break: normal ; font-size: 14px&quot;&gt;&lt;br&gt;&lt;/p&gt;" style="rounded=1;whiteSpace=wrap;html=1;align=center;fontStyle=1;verticalAlign=middle;strokeColor=light-dark(#1b91ff, #6a6a6a);fillColor=default;strokeWidth=1;fontSize=12;fontFamily=Helvetica;container=0;recursiveResize=0;collapsible=0;fontColor=default;arcSize=1;" parent="1" vertex="1">
          <mxGeometry x="-1022.7099999999998" y="1008" width="500.68" height="526" as="geometry" />
        </mxCell>
        <mxCell id="aleImnM5mG5gDYkD4qVE-3" value="&lt;p style=&quot;margin-top: 6.6pt; margin-bottom: 0pt; margin-left: 0in; direction: ltr; unicode-bidi: embed; vertical-align: baseline; word-break: normal;&quot;&gt;&lt;font style=&quot;color: light-dark(rgb(0, 24, 91), rgb(237, 237, 237));&quot;&gt;&lt;span style=&quot;font-size: 11pt; font-family: &amp;quot;72 Brand Medium&amp;quot;; color: rgb(0, 20, 74);&quot;&gt;Object Store&lt;br&gt;&lt;/span&gt;&lt;font style=&quot;font-weight: normal; font-size: 10px;&quot;&gt;&lt;span style=&quot;font-family: &amp;quot;72 Brand&amp;quot;; color: rgb(0, 20, 74);&quot;&gt;Standardizing data &lt;br&gt;ingests for SAP &lt;/span&gt;&lt;span style=&quot;font-family: &amp;quot;72 Brand&amp;quot;; color: rgb(0, 20, 74);&quot;&gt;LoBs&lt;/span&gt;&lt;/font&gt;&lt;/font&gt;&lt;/p&gt;" style="rounded=1;whiteSpace=wrap;html=1;align=left;fontStyle=1;verticalAlign=middle;strokeColor=none;fillColor=light-dark(#d2f0ff, #ededed);strokeWidth=1;fontSize=11;fontFamily=Arial;container=0;recursiveResize=0;collapsible=0;fontColor=#00185A;arcSize=13;gradientColor=none;gradientDirection=south;spacing=15;spacingTop=-8;" parent="1" vertex="1">
          <mxGeometry x="-994" y="1434" width="449.68" height="84" as="geometry" />
        </mxCell>
        <mxCell id="aleImnM5mG5gDYkD4qVE-4" value="&lt;b style=&quot;forced-color-adjust: none; color: rgb(0, 24, 90); font-family: Helvetica; font-size: 16px; font-style: normal; font-variant-ligatures: normal; font-variant-caps: normal; letter-spacing: normal; orphans: 2; text-indent: 0px; text-transform: none; widows: 2; word-spacing: 0px; -webkit-text-stroke-width: 0px; white-space: normal; background-color: rgb(251, 251, 251); text-decoration-thickness: initial; text-decoration-style: initial; text-decoration-color: initial;&quot;&gt;Business Data Fabric&lt;/b&gt;" style="rounded=1;whiteSpace=wrap;html=1;strokeColor=#1B91FF;strokeWidth=1;fillColor=none;align=center;verticalAlign=top;fontSize=11;fontFamily=Arial;container=0;recursiveResize=0;collapsible=0;fontColor=#595959;arcSize=3;gradientColor=none;spacing=1;" parent="1" vertex="1">
          <mxGeometry x="-994" y="1179" width="448" height="240" as="geometry" />
        </mxCell>
        <mxCell id="aleImnM5mG5gDYkD4qVE-13" value="&lt;p style=&quot;margin-top: 0pt; margin-bottom: 0pt; margin-left: 0in; direction: ltr; unicode-bidi: embed; word-break: normal;&quot;&gt;&lt;span&gt;&lt;b style=&quot;font-family: Helvetica; text-align: left; font-size: 14px;&quot;&gt;Insight&lt;/b&gt;&lt;b style=&quot;font-family: Helvetica; text-align: left; font-size: 14px;&quot;&gt; &lt;/b&gt;&lt;b style=&quot;font-family: Helvetica; text-align: left; font-size: 14px;&quot;&gt;Apps&lt;/b&gt;&lt;/span&gt;&lt;/p&gt;&lt;p style=&quot;margin-top: 0pt; margin-bottom: 0pt; margin-left: 0in; direction: ltr; unicode-bidi: embed; word-break: normal;&quot;&gt;360 Analytics,&amp;nbsp;&lt;span style=&quot;background-color: transparent;&quot;&gt;Extended Planning,&amp;nbsp;&lt;/span&gt;&lt;span style=&quot;background-color: transparent;&quot;&gt;3rd Party Apps&lt;/span&gt;&lt;/p&gt;" style="rounded=1;whiteSpace=wrap;html=1;fontSize=12;fontFamily=Arial;align=center;verticalAlign=middle;fillColor=light-dark(#89d1ff, #ededed);strokeColor=none;fontColor=#00185A;strokeWidth=1.5;container=0;arcSize=9;gradientColor=none;spacing=0;spacingTop=0;" parent="1" vertex="1">
          <mxGeometry x="-992" y="1036" width="300" height="55" as="geometry" />
        </mxCell>
        <mxCell id="aleImnM5mG5gDYkD4qVE-40" value="" style="rounded=1;whiteSpace=wrap;html=1;align=center;fontStyle=1;verticalAlign=middle;strokeColor=light-dark(#1b91ff, #6a6a6a);fillColor=default;strokeWidth=1;fontSize=12;fontFamily=Helvetica;container=0;recursiveResize=0;collapsible=0;fontColor=default;arcSize=4;" parent="1" vertex="1">
          <mxGeometry x="-1253" y="1008" width="203" height="418" as="geometry" />
        </mxCell>
        <mxCell id="aleImnM5mG5gDYkD4qVE-41" value="&lt;span style=&quot;font-weight: 700;&quot;&gt;SAP Data Sources&lt;/span&gt;" style="text;whiteSpace=wrap;html=1;container=0;fillColor=none;fontColor=light-dark(#00185b, #ededed);fontSize=15;" parent="1" vertex="1">
          <mxGeometry x="-1219" y="1020" width="148" height="27" as="geometry" />
        </mxCell>
        <mxCell id="aleImnM5mG5gDYkD4qVE-42" value="&lt;span style=&quot;&quot;&gt;&lt;font style=&quot;font-size: 13px;&quot;&gt;SAP Data Products&lt;/font&gt;&lt;/span&gt;&lt;div&gt;&lt;span style=&quot;font-weight: normal;&quot;&gt;&lt;font style=&quot;font-size: 9px; line-height: 100%;&quot;&gt;(based on ORD standard)&lt;/font&gt;&lt;/span&gt;&lt;/div&gt;" style="rounded=1;whiteSpace=wrap;html=1;align=center;fontStyle=1;verticalAlign=middle;strokeColor=none;fillColor=default;strokeWidth=1;fontSize=11;fontFamily=Arial;container=0;recursiveResize=0;collapsible=0;fontColor=#00185A;arcSize=13;gradientColor=none;gradientDirection=south;" parent="1" vertex="1">
          <mxGeometry x="-874" y="1445" width="144" height="62" as="geometry" />
        </mxCell>
        <mxCell id="aleImnM5mG5gDYkD4qVE-43" style="edgeStyle=orthogonalEdgeStyle;rounded=0;orthogonalLoop=1;jettySize=auto;html=1;endArrow=block;endFill=1;strokeColor=#475E74;strokeWidth=1;exitX=0.498;exitY=-0.004;exitDx=0;exitDy=0;entryX=0.435;entryY=1.002;entryDx=0;entryDy=0;entryPerimeter=0;exitPerimeter=0;" parent="1" source="aleImnM5mG5gDYkD4qVE-42" edge="1">
          <mxGeometry relative="1" as="geometry">
            <mxPoint x="-805" y="1444" as="sourcePoint" />
            <mxPoint x="-801.8242" y="1419.612" as="targetPoint" />
            <Array as="points" />
          </mxGeometry>
        </mxCell>
        <mxCell id="aleImnM5mG5gDYkD4qVE-48" value="&lt;p style=&quot;margin-top: 0pt; margin-bottom: 0pt; margin-left: 0in; direction: ltr; unicode-bidi: embed; word-break: normal;&quot;&gt;&lt;b style=&quot;font-family: Helvetica; text-align: left;&quot;&gt;AI Copilots&lt;/b&gt;&lt;/p&gt;" style="rounded=1;whiteSpace=wrap;html=1;fontSize=14;fontFamily=Arial;align=center;verticalAlign=middle;fillColor=light-dark(#89d1ff, #ededed);strokeColor=none;fontColor=#00185A;strokeWidth=1.5;container=0;arcSize=8;gradientColor=none;spacing=0;spacingTop=0;" parent="1" vertex="1">
          <mxGeometry x="-682" y="1036" width="136" height="55" as="geometry" />
        </mxCell>
        <mxCell id="aleImnM5mG5gDYkD4qVE-49" value="&lt;font&gt;&lt;span&gt;SAP&lt;/span&gt;&lt;/font&gt;&lt;font&gt;&lt;span&gt;&amp;nbsp;S/4HANA PCE&lt;/span&gt;&lt;/font&gt;" style="rounded=1;whiteSpace=wrap;html=1;strokeColor=none;strokeWidth=1.5;fillColor=#D1EFFF;align=center;verticalAlign=middle;fontSize=11;fontFamily=Helvetica;container=0;recursiveResize=0;collapsible=0;fontColor=light-dark(#00185A,#CCDDFF);arcSize=12;flipV=0;flipH=1;fontStyle=1;gradientColor=none;gradientDirection=south;" parent="1" vertex="1">
          <mxGeometry x="-1222" y="1070" width="142.9994350240348" height="38.810126582278485" as="geometry" />
        </mxCell>
        <mxCell id="aleImnM5mG5gDYkD4qVE-50" value="&lt;font&gt;&lt;span&gt;SAP HCM&lt;/span&gt;&lt;/font&gt;" style="rounded=1;whiteSpace=wrap;html=1;strokeColor=none;strokeWidth=1.5;fillColor=#D1EFFF;align=center;verticalAlign=middle;fontSize=11;fontFamily=Helvetica;container=0;recursiveResize=0;collapsible=0;fontColor=light-dark(#00185A,#CCDDFF);arcSize=12;flipV=0;flipH=1;fontStyle=1;gradientColor=none;gradientDirection=south;" parent="1" vertex="1">
          <mxGeometry x="-1222" y="1129" width="142.9994350240348" height="38.810126582278485" as="geometry" />
        </mxCell>
        <mxCell id="aleImnM5mG5gDYkD4qVE-51" value="&lt;font&gt;&lt;span&gt;SAP ISBN&lt;/span&gt;&lt;/font&gt;" style="rounded=1;whiteSpace=wrap;html=1;strokeColor=none;strokeWidth=1.5;fillColor=#D1EFFF;align=center;verticalAlign=middle;fontSize=11;fontFamily=Helvetica;container=0;recursiveResize=0;collapsible=0;fontColor=light-dark(#00185A,#CCDDFF);arcSize=12;flipV=0;flipH=1;fontStyle=1;gradientColor=none;gradientDirection=south;" parent="1" vertex="1">
          <mxGeometry x="-1222" y="1188" width="142.9994350240348" height="38.810126582278485" as="geometry" />
        </mxCell>
        <mxCell id="aleImnM5mG5gDYkD4qVE-52" value="&lt;font&gt;&lt;span&gt;SAP I&amp;amp;CX&lt;/span&gt;&lt;/font&gt;" style="rounded=1;whiteSpace=wrap;html=1;strokeColor=none;strokeWidth=1.5;fillColor=#D1EFFF;align=center;verticalAlign=middle;fontSize=11;fontFamily=Helvetica;container=0;recursiveResize=0;collapsible=0;fontColor=light-dark(#00185A,#CCDDFF);arcSize=12;flipV=0;flipH=1;fontStyle=1;gradientColor=none;gradientDirection=south;" parent="1" vertex="1">
          <mxGeometry x="-1222" y="1247" width="142.9994350240348" height="38.810126582278485" as="geometry" />
        </mxCell>
        <mxCell id="aleImnM5mG5gDYkD4qVE-53" style="edgeStyle=orthogonalEdgeStyle;rounded=0;orthogonalLoop=1;jettySize=auto;html=1;strokeColor=light-dark(#475E74,#EDEDED);strokeWidth=1;endArrow=block;endFill=1;exitX=0.5;exitY=1;exitDx=0;exitDy=0;startFill=0;entryX=0;entryY=0.5;entryDx=0;entryDy=0;" parent="1" source="aleImnM5mG5gDYkD4qVE-40" target="aleImnM5mG5gDYkD4qVE-3" edge="1">
          <mxGeometry relative="1" as="geometry">
            <mxPoint x="-1241.5" y="1474" as="targetPoint" />
            <Array as="points">
              <mxPoint x="-1151" y="1476" />
            </Array>
            <mxPoint x="-1187.5" y="1361" as="sourcePoint" />
          </mxGeometry>
        </mxCell>
        <mxCell id="aleImnM5mG5gDYkD4qVE-55" value="&lt;p style=&quot;margin-top: 5.4pt; margin-bottom: 0pt; margin-left: 0in; direction: ltr; unicode-bidi: embed; vertical-align: baseline; word-break: normal;&quot;&gt;&lt;/p&gt;&lt;p style=&quot;line-height: 100%;&quot;&gt;&lt;font style=&quot;color: light-dark(rgb(0, 24, 91), rgb(237, 237, 237));&quot;&gt;&lt;font style=&quot;&quot;&gt;&lt;font face=&quot;Arial&quot; style=&quot;font-size: 13px; line-height: 100%;&quot;&gt;&lt;span style=&quot;color: rgb(0, 42, 134);&quot;&gt;Custom Data Products&amp;nbsp;&lt;br&gt;&lt;/span&gt;&lt;/font&gt;&lt;/font&gt;&lt;span style=&quot;font-size: 8px; font-weight: normal; background-color: transparent; font-family: &amp;quot;72 Brand&amp;quot;; line-height: 100%; color: rgb(0, 42, 134);&quot;&gt;(based on S/4HANA Z-CDS-Views,&amp;nbsp;&lt;/span&gt;&lt;span style=&quot;font-size: 8px; font-weight: normal; background-color: transparent; font-family: &amp;quot;72 Brand&amp;quot;; line-height: 100%; color: rgb(0, 42, 134);&quot;&gt;Customer managed Source Systems, SAP BW, Partners or Databricks)&lt;/span&gt;&lt;/font&gt;&lt;/p&gt;&lt;p&gt;&lt;/p&gt;" style="rounded=1;whiteSpace=wrap;html=1;align=center;fontStyle=1;verticalAlign=middle;strokeColor=none;fillColor=default;strokeWidth=1;fontSize=11;fontFamily=Arial;container=0;recursiveResize=0;collapsible=0;fontColor=#00185A;arcSize=13;gradientColor=none;gradientDirection=south;spacing=2;spacingTop=-2;" parent="1" vertex="1">
          <mxGeometry x="-719.32" y="1445" width="165.32" height="62" as="geometry" />
        </mxCell>
        <mxCell id="aleImnM5mG5gDYkD4qVE-86" style="edgeStyle=orthogonalEdgeStyle;rounded=0;orthogonalLoop=1;jettySize=auto;html=1;exitX=0.5;exitY=1;exitDx=0;exitDy=0;" parent="1" edge="1">
          <mxGeometry relative="1" as="geometry">
            <mxPoint x="-587.0027964192668" y="1319.4661354581672" as="sourcePoint" />
            <mxPoint x="-587.0027964192668" y="1319.4661354581672" as="targetPoint" />
          </mxGeometry>
        </mxCell>
        <mxCell id="aleImnM5mG5gDYkD4qVE-94" value="" style="group;fillColor=#89D1FF;" parent="1" vertex="1" connectable="0">
          <mxGeometry x="-763.94" y="1213" width="183.48000000000002" height="92" as="geometry" />
        </mxCell>
        <mxCell id="aleImnM5mG5gDYkD4qVE-8" value="&lt;p style=&quot;margin-top: 0pt; margin-bottom: 0pt; margin-left: 0in; direction: ltr; unicode-bidi: embed; word-break: normal;&quot;&gt;&lt;/p&gt;&lt;div style=&quot;line-height: 150%;&quot;&gt;&lt;font face=&quot;Helvetica&quot; style=&quot;line-height: 2.1;&quot;&gt;&lt;span style=&quot;background-color: transparent;&quot;&gt;SAP Databricks&amp;nbsp;&lt;/span&gt;&lt;/font&gt;&lt;br&gt;&lt;/div&gt;&lt;p&gt;&lt;/p&gt;" style="rounded=1;whiteSpace=wrap;html=1;strokeColor=none;strokeWidth=1.5;fillColor=#89D1FF;align=center;verticalAlign=top;fontStyle=1;fontSize=13;fontFamily=Arial;fontColor=#00185A;spacing=0;spacingTop=-3;container=0;arcSize=5;flipV=0;flipH=0;gradientColor=none;" parent="aleImnM5mG5gDYkD4qVE-94" vertex="1">
          <mxGeometry width="183.48" height="92" as="geometry" />
        </mxCell>
        <mxCell id="aleImnM5mG5gDYkD4qVE-26" value="&lt;div style=&quot;text-align: left;&quot;&gt;Custom AI/ML&lt;/div&gt;" style="rounded=1;whiteSpace=wrap;html=1;strokeColor=none;strokeWidth=1.5;fillColor=#FFFFFF;align=center;verticalAlign=middle;fontStyle=0;fontSize=12;fontFamily=Arial;fontColor=#00185A;spacing=0;spacingTop=0;container=0;arcSize=15;flipV=0;flipH=0;" parent="aleImnM5mG5gDYkD4qVE-94" vertex="1">
          <mxGeometry x="12.940000000000055" y="57" width="154.45" height="25" as="geometry" />
        </mxCell>
        <mxCell id="aleImnM5mG5gDYkD4qVE-54" value="&lt;div&gt;&lt;span style=&quot;font-family: Helvetica; background-color: transparent; color: light-dark(rgb(0, 24, 90), rgb(197, 217, 255));&quot;&gt;Zero Copy&lt;/span&gt;&lt;/div&gt;" style="rounded=1;whiteSpace=wrap;html=1;strokeColor=none;strokeWidth=1.5;fillColor=#FFFFFF;align=center;verticalAlign=middle;fontStyle=0;fontSize=12;fontFamily=Arial;fontColor=#00185A;spacing=0;spacingTop=0;container=0;arcSize=15;flipV=0;flipH=0;" parent="aleImnM5mG5gDYkD4qVE-94" vertex="1">
          <mxGeometry x="12.940000000000055" y="27" width="154.45" height="25" as="geometry" />
        </mxCell>
        <mxCell id="aleImnM5mG5gDYkD4qVE-95" value="" style="group" parent="1" vertex="1" connectable="0">
          <mxGeometry x="-966" y="1213" width="183.48000000000002" height="92" as="geometry" />
        </mxCell>
        <mxCell id="aleImnM5mG5gDYkD4qVE-7" value="&lt;p style=&quot;margin-top: 0pt; margin-bottom: 0pt; margin-left: 0in; direction: ltr; unicode-bidi: embed; word-break: normal;&quot;&gt;&lt;/p&gt;&lt;div style=&quot;line-height: 150%;&quot;&gt;&lt;p style=&quot;margin-top: 6.6pt; margin-bottom: 0pt; margin-left: 0in; direction: ltr; unicode-bidi: embed; vertical-align: baseline; word-break: normal;&quot;&gt;&lt;span style=&quot;font-family: &amp;quot;72 Brand Medium&amp;quot;;&quot;&gt;SAP BW PCE&lt;/span&gt;&lt;/p&gt;&lt;/div&gt;&lt;p&gt;&lt;/p&gt;" style="rounded=1;whiteSpace=wrap;html=1;strokeColor=none;strokeWidth=1.5;fillColor=#D1EFFF;align=center;verticalAlign=top;fontStyle=1;fontSize=13;fontFamily=Arial;fontColor=#00185A;spacing=0;spacingTop=-8;container=0;arcSize=6;flipV=0;flipH=0;gradientColor=none;" parent="aleImnM5mG5gDYkD4qVE-95" vertex="1">
          <mxGeometry width="183.48" height="92" as="geometry" />
        </mxCell>
        <mxCell id="aleImnM5mG5gDYkD4qVE-25" value="&lt;span style=&quot;text-align: left;&quot;&gt;Legacy Data Flows&lt;/span&gt;" style="rounded=1;whiteSpace=wrap;html=1;strokeColor=none;strokeWidth=1.5;fillColor=#FFFFFF;align=center;verticalAlign=middle;fontStyle=0;fontSize=12;fontFamily=Arial;fontColor=#00185A;spacing=0;spacingTop=0;container=0;arcSize=15;flipV=0;flipH=0;" parent="aleImnM5mG5gDYkD4qVE-95" vertex="1">
          <mxGeometry x="13.490000000000009" y="27" width="155" height="25" as="geometry" />
        </mxCell>
        <mxCell id="aleImnM5mG5gDYkD4qVE-56" value="&lt;span style=&quot;text-align: left;&quot;&gt;Data Product Generator&lt;/span&gt;" style="rounded=1;whiteSpace=wrap;html=1;strokeColor=none;strokeWidth=1.5;fillColor=#FFFFFF;align=center;verticalAlign=middle;fontStyle=0;fontSize=12;fontFamily=Arial;fontColor=#00185A;spacing=0;spacingTop=0;container=0;arcSize=15;flipV=0;flipH=0;" parent="aleImnM5mG5gDYkD4qVE-95" vertex="1">
          <mxGeometry x="12.990000000000009" y="57" width="155" height="25" as="geometry" />
        </mxCell>
        <mxCell id="aleImnM5mG5gDYkD4qVE-96" value="" style="group" parent="1" vertex="1" connectable="0">
          <mxGeometry x="-966" y="1316" width="183.48000000000002" height="92" as="geometry" />
        </mxCell>
        <mxCell id="aleImnM5mG5gDYkD4qVE-9" value="&lt;p style=&quot;margin-top: 0pt; margin-bottom: 0pt; margin-left: 0in; direction: ltr; unicode-bidi: embed; word-break: normal;&quot;&gt;&lt;/p&gt;&lt;div style=&quot;line-height: 150%;&quot;&gt;&lt;p style=&quot;margin-top: 6.6pt; margin-bottom: 0pt; margin-left: 0in; direction: ltr; unicode-bidi: embed; vertical-align: baseline; word-break: normal;&quot;&gt;&lt;span style=&quot;font-family: &amp;quot;72 Brand Medium&amp;quot;;&quot;&gt;SAP BDC Cockpit&lt;/span&gt;&lt;/p&gt;&lt;/div&gt;&lt;p&gt;&lt;/p&gt;" style="rounded=1;whiteSpace=wrap;html=1;strokeColor=none;strokeWidth=1.5;fillColor=#D1EFFF;align=center;verticalAlign=top;fontStyle=1;fontSize=13;fontFamily=Arial;fontColor=#00185A;spacing=0;spacingTop=-9;container=0;arcSize=6;flipV=0;flipH=0;gradientColor=none;" parent="aleImnM5mG5gDYkD4qVE-96" vertex="1">
          <mxGeometry width="183.48" height="92" as="geometry" />
        </mxCell>
        <mxCell id="aleImnM5mG5gDYkD4qVE-58" value="&lt;span style=&quot;text-align: left;&quot;&gt;Data Product Installation&lt;/span&gt;" style="rounded=1;whiteSpace=wrap;html=1;strokeColor=none;strokeWidth=1.5;fillColor=#FFFFFF;align=center;verticalAlign=middle;fontStyle=0;fontSize=12;fontFamily=Arial;fontColor=#00185A;spacing=0;spacingTop=0;container=0;arcSize=15;flipV=0;flipH=0;" parent="aleImnM5mG5gDYkD4qVE-96" vertex="1">
          <mxGeometry x="12.490000000000009" y="28" width="155" height="25" as="geometry" />
        </mxCell>
        <mxCell id="aleImnM5mG5gDYkD4qVE-59" value="&lt;span style=&quot;text-align: left;&quot;&gt;Security and Governance&lt;/span&gt;" style="rounded=1;whiteSpace=wrap;html=1;strokeColor=none;strokeWidth=1.5;fillColor=#FFFFFF;align=center;verticalAlign=middle;fontStyle=0;fontSize=12;fontFamily=Arial;fontColor=#00185A;spacing=0;spacingTop=0;container=0;arcSize=15;flipV=0;flipH=0;" parent="aleImnM5mG5gDYkD4qVE-96" vertex="1">
          <mxGeometry x="12.990000000000009" y="58" width="155" height="25" as="geometry" />
        </mxCell>
        <mxCell id="aleImnM5mG5gDYkD4qVE-97" value="" style="group" parent="1" vertex="1" connectable="0">
          <mxGeometry x="-763.94" y="1316" width="183.48000000000002" height="92" as="geometry" />
        </mxCell>
        <mxCell id="aleImnM5mG5gDYkD4qVE-6" value="&lt;p style=&quot;margin-top: 0pt; margin-bottom: 0pt; margin-left: 0in; direction: ltr; unicode-bidi: embed; word-break: normal;&quot;&gt;&lt;/p&gt;&lt;span style=&quot;font-family: Helvetica;&quot;&gt;SAP Datasphere&lt;/span&gt;&lt;p&gt;&lt;/p&gt;" style="rounded=1;whiteSpace=wrap;html=1;strokeColor=none;strokeWidth=1.5;fillColor=#D1EFFF;align=center;verticalAlign=top;fontStyle=1;fontSize=13;fontFamily=Arial;fontColor=#00185A;spacing=0;spacingTop=2;container=0;arcSize=6;flipV=0;flipH=0;gradientColor=none;" parent="aleImnM5mG5gDYkD4qVE-97" vertex="1">
          <mxGeometry width="183.48" height="92" as="geometry" />
        </mxCell>
        <mxCell id="aleImnM5mG5gDYkD4qVE-24" value="&lt;span style=&quot;text-align: left;&quot;&gt;Knowledge Graph&lt;/span&gt;" style="rounded=1;whiteSpace=wrap;html=1;strokeColor=none;strokeWidth=1.5;fillColor=#FFFFFF;align=center;verticalAlign=middle;fontStyle=0;fontSize=12;fontFamily=Arial;fontColor=#00185A;spacing=0;spacingTop=0;container=0;arcSize=16;flipV=0;flipH=0;" parent="aleImnM5mG5gDYkD4qVE-97" vertex="1">
          <mxGeometry x="22.510000000000105" y="58" width="138.45" height="25" as="geometry" />
        </mxCell>
        <mxCell id="aleImnM5mG5gDYkD4qVE-57" value="&lt;span style=&quot;font-family: Helvetica; font-style: normal; font-variant-ligatures: normal; font-variant-caps: normal; letter-spacing: normal; orphans: 2; text-indent: 0px; text-transform: none; widows: 2; word-spacing: 0px; -webkit-text-stroke-width: 0px; white-space: normal; background-color: rgb(251, 251, 251); text-decoration-thickness: initial; text-decoration-style: initial; text-decoration-color: initial; float: none; display: inline !important;&quot;&gt;Business Semantics&lt;/span&gt;" style="rounded=1;whiteSpace=wrap;html=1;strokeColor=none;strokeWidth=1.5;fillColor=#FFFFFF;align=center;verticalAlign=middle;fontStyle=0;fontSize=12;fontFamily=Arial;fontColor=#00185A;spacing=0;spacingTop=0;container=0;arcSize=16;flipV=0;flipH=0;" parent="aleImnM5mG5gDYkD4qVE-97" vertex="1">
          <mxGeometry x="20.940000000000055" y="28" width="138.45" height="25" as="geometry" />
        </mxCell>
        <mxCell id="aleImnM5mG5gDYkD4qVE-98" value="" style="group" parent="1" vertex="1" connectable="0">
          <mxGeometry x="-994" y="1102" width="448" height="64" as="geometry" />
        </mxCell>
        <mxCell id="aleImnM5mG5gDYkD4qVE-5" value="&lt;p style=&quot;margin-top: 0pt; margin-bottom: 0pt; margin-left: 0in; direction: ltr; unicode-bidi: embed; word-break: normal;&quot;&gt;&lt;/p&gt;&lt;div style=&quot;line-height: 150%;&quot;&gt;&lt;span style=&quot;font-family: Helvetica; background-color: transparent;&quot;&gt;SAP Analytics Cloud&amp;nbsp;&lt;/span&gt;&lt;br&gt;&lt;/div&gt;&lt;p&gt;&lt;/p&gt;" style="rounded=1;whiteSpace=wrap;html=1;strokeColor=none;strokeWidth=1.5;fillColor=#D1EFFF;align=center;verticalAlign=top;fontStyle=1;fontSize=13;fontFamily=Arial;fontColor=#00185A;spacing=0;spacingTop=0;container=0;arcSize=6;flipV=0;flipH=0;gradientColor=none;" parent="aleImnM5mG5gDYkD4qVE-98" vertex="1">
          <mxGeometry width="448" height="64" as="geometry" />
        </mxCell>
        <mxCell id="aleImnM5mG5gDYkD4qVE-22" value="&lt;span style=&quot;font-family: Helvetica;&quot;&gt;Analytics and Planning&lt;/span&gt;" style="rounded=1;whiteSpace=wrap;html=1;strokeColor=none;strokeWidth=1.5;fillColor=#FFFFFF;align=center;verticalAlign=middle;fontStyle=0;fontSize=12;fontFamily=Arial;fontColor=#00185A;spacing=0;spacingTop=0;container=0;arcSize=15;flipV=0;flipH=0;" parent="aleImnM5mG5gDYkD4qVE-98" vertex="1">
          <mxGeometry x="35.979274611398964" y="29" width="178.7357512953368" height="25" as="geometry" />
        </mxCell>
        <mxCell id="aleImnM5mG5gDYkD4qVE-60" value="&lt;meta charset=&quot;utf-8&quot;&gt;&lt;span style=&quot;color: rgb(0, 24, 90); font-family: Arial; font-size: 12px; font-style: normal; font-variant-ligatures: normal; font-variant-caps: normal; font-weight: 400; letter-spacing: normal; orphans: 2; text-align: left; text-indent: 0px; text-transform: none; widows: 2; word-spacing: 0px; -webkit-text-stroke-width: 0px; white-space: normal; background-color: rgb(251, 251, 251); text-decoration-thickness: initial; text-decoration-style: initial; text-decoration-color: initial; display: inline !important; float: none;&quot;&gt;Business Intelligence&lt;/span&gt;&lt;br style=&quot;forced-color-adjust: none; color: rgb(0, 24, 90); font-family: Arial; font-size: 12px; font-style: normal; font-variant-ligatures: normal; font-variant-caps: normal; font-weight: 400; letter-spacing: normal; orphans: 2; text-align: left; text-indent: 0px; text-transform: none; widows: 2; word-spacing: 0px; -webkit-text-stroke-width: 0px; white-space: normal; background-color: rgb(251, 251, 251); text-decoration-thickness: initial; text-decoration-style: initial; text-decoration-color: initial;&quot;&gt;" style="rounded=1;whiteSpace=wrap;html=1;strokeColor=none;strokeWidth=1.5;fillColor=#FFFFFF;align=center;verticalAlign=middle;fontStyle=0;fontSize=12;fontFamily=Arial;fontColor=#00185A;spacing=0;spacingTop=0;container=0;arcSize=15;flipV=0;flipH=0;" parent="aleImnM5mG5gDYkD4qVE-98" vertex="1">
          <mxGeometry x="225.7525388601036" y="29" width="178.7357512953368" height="25" as="geometry" />
        </mxCell>
        <mxCell id="aleImnM5mG5gDYkD4qVE-100" value="&lt;font&gt;&lt;span&gt;SAP Successfactors&lt;/span&gt;&lt;/font&gt;" style="rounded=1;whiteSpace=wrap;html=1;strokeColor=none;strokeWidth=1.5;fillColor=#D1EFFF;align=center;verticalAlign=middle;fontSize=11;fontFamily=Helvetica;container=0;recursiveResize=0;collapsible=0;fontColor=light-dark(#00185A,#CCDDFF);arcSize=12;flipV=0;flipH=1;fontStyle=1;gradientColor=none;gradientDirection=south;" parent="1" vertex="1">
          <mxGeometry x="-1222" y="1306" width="142.9994350240348" height="38.810126582278485" as="geometry" />
        </mxCell>
        <mxCell id="aleImnM5mG5gDYkD4qVE-101" value="&lt;font&gt;&lt;span&gt;SAP Concur&lt;/span&gt;&lt;/font&gt;" style="rounded=1;whiteSpace=wrap;html=1;strokeColor=none;strokeWidth=1.5;fillColor=#D1EFFF;align=center;verticalAlign=middle;fontSize=11;fontFamily=Helvetica;container=0;recursiveResize=0;collapsible=0;fontColor=light-dark(#00185A,#CCDDFF);arcSize=12;flipV=0;flipH=1;fontStyle=1;gradientColor=none;gradientDirection=south;" parent="1" vertex="1">
          <mxGeometry x="-1222" y="1365.1898734177216" width="142.9994350240348" height="38.810126582278485" as="geometry" />
        </mxCell>
        <mxCell id="S1Uuoqh9kyUoJCa-Lk6Q-1" value="" style="group" parent="1" vertex="1" connectable="0">
          <mxGeometry x="-901.9949999999999" y="990" width="259.25" height="33" as="geometry" />
        </mxCell>
        <mxCell id="S1Uuoqh9kyUoJCa-Lk6Q-2" value="&lt;p style=&quot;margin-top: 0pt; margin-bottom: 0pt; margin-left: 0in; direction: ltr; unicode-bidi: embed; word-break: normal; font-size: 13px;&quot;&gt;&lt;/p&gt;&lt;div style=&quot;line-height: 150%; font-size: 13px;&quot;&gt;&lt;b style=&quot;font-family: Helvetica; font-size: 15px; text-align: left;&quot;&gt;&lt;font style=&quot;font-size: 16px;&quot;&gt;Business Data Cloud&lt;/font&gt;&lt;/b&gt;&lt;br style=&quot;font-size: 13px;&quot;&gt;&lt;/div&gt;&lt;p style=&quot;font-size: 13px;&quot;&gt;&lt;/p&gt;" style="rounded=1;whiteSpace=wrap;html=1;strokeColor=none;strokeWidth=1.5;fillColor=light-dark(#0878f5, #0d3c56);align=center;verticalAlign=middle;fontStyle=1;fontSize=13;fontFamily=Arial;fontColor=#FFFFFF;spacing=0;spacingTop=11;container=0;arcSize=50;flipV=0;flipH=0;gradientColor=none;spacingLeft=13;" parent="S1Uuoqh9kyUoJCa-Lk6Q-1" vertex="1">
          <mxGeometry width="259.25" height="33" as="geometry" />
        </mxCell>
        <mxCell id="S1Uuoqh9kyUoJCa-Lk6Q-3" value="" style="shape=image;verticalLabelPosition=bottom;labelBackgroundColor=default;verticalAlign=top;aspect=fixed;imageAspect=0;editableCssRules=.*;image=data:image/svg+xml,PHN2ZyB4bWxucz0iaHR0cDovL3d3dy53My5vcmcvMjAwMC9zdmciIGZpbGw9Im5vbmUiIHZpZXdCb3g9Ii0wLjAwMDQ4Mzc3NjAwMDk3NjU3MTI1IC0wLjAwMjE5MzcxNDA1MDI5Mjk3NzUgMTUuOTk5NjI3NjM5NTg3NDAyIDE1Ljk5OTYyNzYzOTU4NzQwMiIgaGVpZ2h0PSIxNS45OTk2Mjc2Mzk1ODc0MDIiIHdpZHRoPSIxNS45OTk2Mjc2Mzk1ODc0MDIiPiYjeGE7PGNpcmNsZSBzdHJva2Utd2lkdGg9IjAuMjg1NzA4IiBzdHJva2U9IiNENURBREQiIGZpbGw9InVybCgjcGFpbnQwX2xpbmVhcl82NDcxXzI1NjY1KSIgcj0iNy44NTY5NiIgY3k9IjcuOTk3NjIiIGN4PSI3Ljk5OTMzIi8+JiN4YTs8ZyBjbGlwLXBhdGg9InVybCgjY2xpcDBfNjQ3MV8yNTY2NSkiPiYjeGE7PHBhdGggZmlsbD0idXJsKCNwYWludDFfbGluZWFyXzY0NzFfMjU2NjUpIiBkPSJNMTAuNDQwNyA3LjI3ODg2QzEwLjY0MzIgNi42ODM4NCAxMC45MDgyIDYuNDE4ODIgMTEuNTAzMiA2LjIxNjMxQzExLjY3NTcgNi4xNTYzMSAxMS42NzU3IDUuOTA4OCAxMS41MDMyIDUuODUxM0MxMC45MDgyIDUuNjQ4NzkgMTAuNjQzMiA1LjM4Mzc3IDEwLjQ0MDcgNC43ODg3NEMxMC4zODMyIDQuNjE2MjQgMTAuMTM1NyA0LjYxNjI0IDEwLjA3ODIgNC43ODg3NEM5Ljg3NTY1IDUuMzgzNzcgOS42MTA2NCA1LjY0ODc5IDkuMDE1NjEgNS44NTEzQzguODQzMSA1LjkxMTMgOC44NDMxIDYuMTU4ODEgOS4wMTU2MSA2LjIxNjMxQzkuNjEwNjQgNi40MTg4MiA5Ljg3NTY1IDYuNjgzODQgMTAuMDc4MiA3LjI3ODg2QzEwLjEzNTcgNy40NTEzNyAxMC4zODMyIDcuNDUxMzcgMTAuNDQwNyA3LjI3ODg2WiIvPiYjeGE7PHBhdGggZmlsbD0idXJsKCNwYWludDJfbGluZWFyXzY0NzFfMjU2NjUpIiBkPSJNMTEuNzQ2NyA1LjE1MTc4QzExLjg3MzggNC43NzYxNSAxMi4wNDE0IDQuNjA4NTYgMTIuNDE3IDQuNDgxNDJDMTIuNTI2OCA0LjQ0Mzg2IDEyLjUyNjggNC4yODc4MyAxMi40MTcgNC4yNTAyNkMxMi4wNDE0IDQuMTIzMTMgMTEuODczOCAzLjk1NTU0IDExLjc0NjcgMy41Nzk5MUMxMS43MDkxIDMuNDcwMTEgMTEuNTU2IDMuNDcwMTEgMTEuNTE4NCAzLjU3OTkxQzExLjM5MTMgMy45NTU1NCAxMS4yMjM3IDQuMTIzMTMgMTAuODQ4MSA0LjI1MDI2QzEwLjczODMgNC4yODc4MyAxMC43MzgzIDQuNDQzODYgMTAuODQ4MSA0LjQ4MTQyQzExLjIyMzcgNC42MDg1NiAxMS4zOTEzIDQuNzc2MTUgMTEuNTE4NCA1LjE1MTc4QzExLjU1NiA1LjI2MTU4IDExLjcwOTEgNS4yNjE1OCAxMS43NDY3IDUuMTUxNzhaIi8+JiN4YTs8cGF0aCBmaWxsPSJ1cmwoI3BhaW50M19saW5lYXJfNjQ3MV8yNTY2NSkiIGQ9Ik03Ljk0Mzc3IDQuMzY1OTdDOC40NDE2OCA0LjM2NTk3IDguODgxOTkgNC40OTcxNiA5LjI1MzY0IDQuNzM0QzkuMjA4MzggNC44Mjg3NiA5LjE2OTMyIDQuODc4MzkgOS4xMzc0IDQuOTEwMzFDOS4wODgxMyA0Ljk1OTU4IDguOTk2NjMgNS4wMjU4OCA4Ljc2MjA1IDUuMTA1NzFMOC43NTcwNyA1LjEwNzQ0QzcuODk1NjUgNS40MDcwNyA3Ljg2MTIyIDYuNjU4NTYgOC43NjM2IDYuOTYyMjlDOC45OTcwMyA3LjA0MTg5IDkuMDg4MjQgNy4xMDgwMiA5LjEzNzQgNy4xNTcxOEM5LjE4NjU3IDcuMjA2MzQgOS4yNTI3MSA3LjI5NzU2IDkuMzMyMzEgNy41MzEwMkM5LjYzMDcyIDguNDE3MjQgMTAuODg4NSA4LjQxNzI0IDExLjE4NjkgNy41MzEwMkMxMS4yNjY1IDcuMjk3NTYgMTEuMzMyNiA3LjIwNjM0IDExLjM4MTggNy4xNTcxOEMxMS40MzEgNy4xMDc5MSAxMS41MjI2IDcuMDQxNTkgMTEuNzU3MSA2Ljk2MTc2TDExLjc2MjEgNi45NjAwNEMxMS44Mzc0IDYuOTMzODUgMTEuOTA2NCA2LjkwMDM3IDExLjk2OSA2Ljg2MDg5QzEyLjI5NDEgNy4yNDczNiAxMi40OTk1IDcuNzY2NjEgMTIuNDk5NSA4LjM2NjE1QzEyLjQ5OTUgOS43OTY3OCAxMS4zNzQ1IDEwLjY1NzkgMTAuMTU3MiAxMC41ODI4SDkuNTYxMjNWOS4yMDcyQzkuNTUxMzQgOC45MDExOCA5LjM4NjU1IDguNjE2MzIgOS4xMTIyOCA4LjQ1ODdMOS4xMTgwNiA4LjQ1NTI2TDcuMzYzMjkgNy40NDAzOEw3LjM1OTIxIDcuNDM4MDlDNy4wODg1NSA3LjI4NjUzIDYuNzQ2NzEgNy4yNzk1OSA2LjQ2NTAyIDcuNDQzNTJMNi40NjQyMiA3LjQ0Mzk5TDUuNjEzMyA3LjkzNzk2TDUuNjA5NjEgNy45MzU3N0w0LjcyMzYgOC40NTE4NUM0LjQ0MjY3IDguNjEyMyA0LjI4MDkxIDguOTA1MzcgNC4yNzI4MiA5LjIwNzM4TDQuMjcyNjUgMTAuMzIzM0MzLjc2MDg2IDEwLjAxOTQgMy40OTk1MSA5LjQ3MTA5IDMuNDk5NTEgOC43OTkxM0MzLjQ5OTUxIDcuNzA3ODIgNC4yOTY1OSA2Ljg0NjU1IDUuNTI2OTkgNy4wNjA1M0M1LjQyOTc2IDUuNzY4NzkgNi40NjQ5MSA0LjM2NTk3IDcuOTQzNzcgNC4zNjU5N1oiLz4mI3hhOzxwYXRoIGZpbGw9InVybCgjcGFpbnQ0X2xpbmVhcl82NDcxXzI1NjY1KSIgZD0iTTYuOTE2NjMgOS41MDEzMUw3LjU5MTg0IDkuOTAzNjJWMTAuNjA5OEw2LjkxNjYzIDExLjAwMDhMNi4yNDE0MiAxMC42MDk4VjkuOTAzNjJMNi45MTY2MyA5LjUwMTMxWk02LjkxNjYzIDguOTc4MDJMNy43ODMxNSA4LjQ2MzE3TDcuMDI5MTYgOC4wMjcxQzYuOTU4ODMgNy45ODc3MSA2Ljg3MTYxIDcuOTg3NzEgNi44MDQwOSA4LjAyNzFMNi4wNTI5MiA4LjQ2MzE3TDYuOTE5NDQgOC45NzgwMkg2LjkxNjYzWk03LjM1ODMzIDkuMjM5NjZMNy45MzIyNiA5LjU4Mjg5QzcuOTk5NzggOS42MjIyOCA4LjA0MTk4IDkuNjk4MjQgOC4wNDE5OCA5Ljc3NzAyVjEwLjM1MDlMOC44ODU5OSA5Ljg2MTQyVjkuMjM2ODVDOC44ODU5OSA5LjE1NTI2IDguODQzNzkgOS4wODIxMSA4Ljc3MzQ1IDkuMDQyNzNMOC4yMjc2NiA4LjcyNDgyTDcuMzU4MzMgOS4yNDI0OFY5LjIzOTY2Wk03LjU5MTg0IDExLjEzMDNMNy4wMjkxNiAxMS40NTY2QzcuMDI5MTYgMTEuNDU2NiA3LjAyOTE2IDExLjQ1NjYgNy4wMjYzNSAxMS40NTY2QzYuOTkyNTkgMTEuNDc2MyA2Ljk1NjAyIDExLjQ4NDcgNi45MTk0NCAxMS40ODQ3QzYuODgyODcgMTEuNDg0NyA2Ljg0NjI5IDExLjQ3NjMgNi44MTI1MyAxMS40NTY2QzYuODEyNTMgMTEuNDU2NiA2LjgxMjUzIDExLjQ1NjYgNi44MDk3MiAxMS40NTY2TDYuMjQ3MDQgMTEuMTMwM1YxMi4xNDAzTDYuODA5NzIgMTIuNDY2NkM2Ljg0MzQ4IDEyLjQ4NjMgNi44ODI4NyAxMi40OTc2IDYuOTIyMjUgMTIuNDk3NkM2Ljk2MTY0IDEyLjQ5NzYgNy4wMDEwMyAxMi40ODYzIDcuMDM0NzkgMTIuNDY2Nkw3LjU5NzQ2IDEyLjE0MDNWMTEuMTMwM0g3LjU5MTg0Wk04LjA0MTk4IDEwLjg2ODZWMTEuODc4Nkw4Ljc3MzQ1IDExLjQ1MzhDOC44NDM3OSAxMS40MTQ0IDguODg1OTkgMTEuMzM4NCA4Ljg4NTk5IDExLjI1OTdWMTAuMzc5MUw4LjA0MTk4IDEwLjg2ODZaTTUuNzkxMjggMTAuMzQ4MVY5Ljc3NDJDNS43OTEyOCA5LjY5NTQzIDUuODMzNDggOS42MjIyOCA1LjkwMSA5LjU4MDA4TDYuNDc0OTMgOS4yMzY4NUw1LjYwNTYgOC43MTkxOUw1LjA1OTggOS4wMzcxQzQuOTg5NDcgOS4wNzY0OSA0Ljk0NzI3IDkuMTUyNDUgNC45NDcyNyA5LjIzMTIyVjkuODU1NzlMNS43OTEyOCAxMC4zNDUzVjEwLjM0ODFaTTUuNzkxMjggMTAuODY4Nkw0Ljk0NzI3IDEwLjM3OTFWMTEuMjU5N0M0Ljk0NzI3IDExLjM0MTMgNC45ODk0NyAxMS40MTQ0IDUuMDU5OCAxMS40NTM4TDUuNzkxMjggMTEuODc4NlYxMC44Njg2WiIvPiYjeGE7PC9nPiYjeGE7PGRlZnM+JiN4YTs8bGluZWFyR3JhZGllbnQgZ3JhZGllbnRVbml0cz0idXNlclNwYWNlT25Vc2UiIHkyPSIxNC43NDU2IiB4Mj0iMTMuNjg3NCIgeTE9IjIuMjY4NyIgeDE9IjEuNDUwNDMiIGlkPSJwYWludDBfbGluZWFyXzY0NzFfMjU2NjUiPiYjeGE7PHN0b3Agc3RvcC1jb2xvcj0id2hpdGUiLz4mI3hhOzxzdG9wIHN0b3AtY29sb3I9IiNFQUVDRUUiIG9mZnNldD0iMSIvPiYjeGE7PC9saW5lYXJHcmFkaWVudD4mI3hhOzxsaW5lYXJHcmFkaWVudCBncmFkaWVudFVuaXRzPSJ1c2VyU3BhY2VPblVzZSIgeTI9IjYuNjA0NDEiIHgyPSIxMi4xNTY1IiB5MT0iNC4wODQyOSIgeDE9IjkuNDI2OTciIGlkPSJwYWludDFfbGluZWFyXzY0NzFfMjU2NjUiPiYjeGE7PHN0b3Agc3RvcC1jb2xvcj0iIzAwQkJGRiIvPiYjeGE7PHN0b3Agc3RvcC1jb2xvcj0iIzAwOEJGRiIgb2Zmc2V0PSIxIi8+JiN4YTs8L2xpbmVhckdyYWRpZW50PiYjeGE7PGxpbmVhckdyYWRpZW50IGdyYWRpZW50VW5pdHM9InVzZXJTcGFjZU9uVXNlIiB5Mj0iNi42MDQ0MSIgeDI9IjEyLjE1NjUiIHkxPSI0LjA4NDI5IiB4MT0iOS40MjY5NyIgaWQ9InBhaW50Ml9saW5lYXJfNjQ3MV8yNTY2NSI+JiN4YTs8c3RvcCBzdG9wLWNvbG9yPSIjMDBCQkZGIi8+JiN4YTs8c3RvcCBzdG9wLWNvbG9yPSIjMDA4QkZGIiBvZmZzZXQ9IjEiLz4mI3hhOzwvbGluZWFyR3JhZGllbnQ+JiN4YTs8bGluZWFyR3JhZGllbnQgZ3JhZGllbnRVbml0cz0idXNlclNwYWNlT25Vc2UiIHkyPSIxMS4xOTMiIHgyPSI4LjkyMzQiIHkxPSI1LjI5NjM0IiB4MT0iNC44NDg2NSIgaWQ9InBhaW50M19saW5lYXJfNjQ3MV8yNTY2NSI+JiN4YTs8c3RvcCBzdG9wLWNvbG9yPSIjMDE5NUZGIi8+JiN4YTs8c3RvcCBzdG9wLWNvbG9yPSIjMTE0N0U5IiBvZmZzZXQ9IjAuOTkxMDI4Ii8+JiN4YTs8L2xpbmVhckdyYWRpZW50PiYjeGE7PGxpbmVhckdyYWRpZW50IGdyYWRpZW50VW5pdHM9InVzZXJTcGFjZU9uVXNlIiB5Mj0iMTEuNDA1MiIgeDI9IjguNjUyOTEiIHkxPSI4LjY1OTYiIHgxPSI1LjUyOTU4IiBpZD0icGFpbnQ0X2xpbmVhcl82NDcxXzI1NjY1Ij4mI3hhOzxzdG9wIHN0b3AtY29sb3I9IiMxMzQ4RkYiLz4mI3hhOzxzdG9wIHN0b3AtY29sb3I9IiMwNjIzOEQiIG9mZnNldD0iMSIvPiYjeGE7PC9saW5lYXJHcmFkaWVudD4mI3hhOzxjbGlwUGF0aCBpZD0iY2xpcDBfNjQ3MV8yNTY2NSI+JiN4YTs8cmVjdCB0cmFuc2Zvcm09InRyYW5zbGF0ZSgzLjQ5OTUxIDMuNDk3NTYpIiBmaWxsPSJ3aGl0ZSIgaGVpZ2h0PSI5IiB3aWR0aD0iOSIvPiYjeGE7PC9jbGlwUGF0aD4mI3hhOzwvZGVmcz4mI3hhOzwvc3ZnPg==;" parent="S1Uuoqh9kyUoJCa-Lk6Q-1" vertex="1">
          <mxGeometry x="26.444999999999936" y="3.759999999999991" width="25.24" height="25.24" as="geometry" />
        </mxCell>
      </root>
    </mxGraphModel>
  </diagram>
</mxfile>
